<svg xmlns="http://www.w3.org/2000/svg" viewBox="0 0 480 340" font-family="-apple-system, BlinkMacSystemFont, 'Segoe UI', sans-serif">
  <defs>
    <filter id="shadow" x="-5%" y="-5%" width="110%" height="120%">
      <feDropShadow dx="0" dy="2" stdDeviation="3" flood-opacity="0.15"/>
    </filter>
  </defs>

  <!-- Background -->
  <rect width="480" height="340" rx="12" fill="#0f1419"/>

  <!-- Title -->
  <text x="240" y="30" text-anchor="middle" fill="#e7e9ea" font-size="14" font-weight="600">Classification Report (Held-out Test, 107 Windows)</text>

  <!-- Column headers -->
  <text x="240" y="60" text-anchor="middle" fill="#6b7280" font-size="10" font-weight="500">PREDICTED</text>
  <text x="180" y="80" text-anchor="middle" fill="#fbbf24" font-size="10">Alcohol</text>
  <text x="270" y="80" text-anchor="middle" fill="#a78bfa" font-size="10">Coffee</text>
  <text x="360" y="80" text-anchor="middle" fill="#fde047" font-size="10">Garlic</text>

  <!-- Row header -->
  <text x="30" y="155" text-anchor="middle" fill="#6b7280" font-size="10" font-weight="500" transform="rotate(-90 30 155)">ACTUAL</text>

  <!-- Row labels -->
  <text x="95" y="125" text-anchor="end" fill="#fbbf24" font-size="11">Alcohol</text>
  <text x="95" y="185" text-anchor="end" fill="#a78bfa" font-size="11">Coffee</text>
  <text x="95" y="245" text-anchor="end" fill="#fde047" font-size="11">Garlic</text>

  <!-- Confusion matrix cells -->
  <!-- Row 1: Alcohol (48 correct, 0 coffee, 1 garlic) -->
  <rect x="135" y="95" width="90" height="50" rx="6" fill="#134e2a"/>
  <text x="180" y="125" text-anchor="middle" fill="#4ade80" font-size="20" font-weight="700">48</text>

  <rect x="225" y="95" width="90" height="50" rx="6" fill="#1a1f26"/>
  <text x="270" y="125" text-anchor="middle" fill="#6b7280" font-size="20" font-weight="700">0</text>

  <rect x="315" y="95" width="90" height="50" rx="6" fill="#2a1a1a"/>
  <text x="360" y="125" text-anchor="middle" fill="#ef4444" font-size="20" font-weight="700">1</text>

  <!-- Row 2: Coffee (0 alcohol, 13 correct, 0 garlic) -->
  <rect x="135" y="155" width="90" height="50" rx="6" fill="#1a1f26"/>
  <text x="180" y="185" text-anchor="middle" fill="#6b7280" font-size="20" font-weight="700">0</text>

  <rect x="225" y="155" width="90" height="50" rx="6" fill="#134e2a"/>
  <text x="270" y="185" text-anchor="middle" fill="#4ade80" font-size="20" font-weight="700">13</text>

  <rect x="315" y="155" width="90" height="50" rx="6" fill="#1a1f26"/>
  <text x="360" y="185" text-anchor="middle" fill="#6b7280" font-size="20" font-weight="700">0</text>

  <!-- Row 3: Garlic (9 alcohol, 1 coffee, 35 correct) -->
  <rect x="135" y="215" width="90" height="50" rx="6" fill="#2a1a1a"/>
  <text x="180" y="245" text-anchor="middle" fill="#ef4444" font-size="20" font-weight="700">9</text>

  <rect x="225" y="215" width="90" height="50" rx="6" fill="#2a1a1a"/>
  <text x="270" y="245" text-anchor="middle" fill="#ef4444" font-size="20" font-weight="700">1</text>

  <rect x="315" y="215" width="90" height="50" rx="6" fill="#134e2a"/>
  <text x="360" y="245" text-anchor="middle" fill="#4ade80" font-size="20" font-weight="700">35</text>

  <!-- F1 scores on the right -->
  <text x="435" y="80" text-anchor="middle" fill="#6b7280" font-size="10">F1</text>
  <text x="435" y="125" text-anchor="middle" fill="#4ade80" font-size="13" font-weight="600">0.906</text>
  <text x="435" y="185" text-anchor="middle" fill="#4ade80" font-size="13" font-weight="600">0.929</text>
  <text x="435" y="245" text-anchor="middle" fill="#4ade80" font-size="13" font-weight="600">0.875</text>

  <!-- Bottom summary -->
  <rect x="135" y="285" width="310" height="40" rx="8" fill="#1a2638" stroke="#2d4a6e" stroke-width="1"/>
  <text x="210" y="307" text-anchor="middle" fill="#6b7280" font-size="10">MACRO F1</text>
  <text x="210" y="322" text-anchor="middle" fill="#4ade80" font-size="14" font-weight="700">0.903</text>
  <text x="340" y="307" text-anchor="middle" fill="#6b7280" font-size="10">ACCURACY</text>
  <text x="340" y="322" text-anchor="middle" fill="#4ade80" font-size="14" font-weight="700">89.7%</text>
</svg>
